<?xml version="1.0" encoding="UTF-8" standalone="no"?>
<!DOCTYPE svg PUBLIC "-//W3C//DTD SVG 1.1//EN"
 "http://www.w3.org/Graphics/SVG/1.1/DTD/svg11.dtd">
<!-- Generated by graphviz version 2.43.0 (0)
 -->
<!-- Title: %3 Pages: 1 -->
<svg width="149pt" height="258pt"
 viewBox="0.00 0.00 149.35 258.19" xmlns="http://www.w3.org/2000/svg" xmlns:xlink="http://www.w3.org/1999/xlink">
<g id="graph0" class="graph" transform="scale(1 1) rotate(0) translate(4 254.19)">
<title>%3</title>
<polygon fill="white" stroke="transparent" points="-4,4 -4,-254.19 145.35,-254.19 145.35,4 -4,4"/>
<!-- A -->
<g id="node1" class="node">
<title>A</title>
<polygon fill="lightgray" stroke="black" points="27.1,-234.44 4.1,-234.44 4.1,-216.44 27.1,-216.44 27.1,-234.44"/>
<text text-anchor="middle" x="15.6" y="-223.24" font-family="Times,serif" font-size="9.00">A</text>
</g>
<!-- A XOR B -->
<g id="node3" class="node">
<title>A XOR B</title>
<ellipse fill="lightblue" stroke="black" cx="39.6" cy="-39.6" rx="39.7" ry="39.7"/>
<text text-anchor="middle" x="39.6" y="-37.4" font-family="Times,serif" font-size="9.00">A XOR B</text>
</g>
<!-- A&#45;&gt;A XOR B -->
<g id="edge5" class="edge">
<title>A&#45;&gt;A XOR B</title>
<path fill="none" stroke="red" stroke-width="0.32" d="M13.21,-216.39C8.17,-198.16 -2.48,-152.42 5.6,-115.2 7.89,-104.66 11.8,-93.82 16.17,-83.78"/>
<polygon fill="red" stroke="red" stroke-width="0.32" points="19.47,-84.99 20.47,-74.45 13.11,-82.07 19.47,-84.99"/>
</g>
<!-- 511 -->
<g id="node5" class="node">
<title>511</title>
<ellipse fill="white" stroke="black" cx="39.6" cy="-139.94" rx="25" ry="25"/>
<text text-anchor="middle" x="39.6" y="-137.74" font-family="Times,serif" font-size="9.00">511</text>
</g>
<!-- A&#45;&gt;511 -->
<g id="edge1" class="edge">
<title>A&#45;&gt;511</title>
<path fill="none" stroke="green" stroke-width="0.85" d="M17.9,-216.44C20.73,-206.59 25.71,-189.27 30.18,-173.7"/>
<polygon fill="green" stroke="green" stroke-width="0.85" points="33.62,-174.4 33.02,-163.82 26.9,-172.47 33.62,-174.4"/>
</g>
<!-- B -->
<g id="node2" class="node">
<title>B</title>
<polygon fill="lightgray" stroke="black" points="74.1,-234.44 51.1,-234.44 51.1,-216.44 74.1,-216.44 74.1,-234.44"/>
<text text-anchor="middle" x="62.6" y="-223.24" font-family="Times,serif" font-size="9.00">B</text>
</g>
<!-- B&#45;&gt;A XOR B -->
<g id="edge4" class="edge">
<title>B&#45;&gt;A XOR B</title>
<path fill="none" stroke="red" stroke-width="0.32" d="M65.11,-216.39C70.42,-198.17 81.69,-152.45 73.6,-115.2 71.31,-104.66 67.4,-93.82 63.02,-83.78"/>
<polygon fill="red" stroke="red" stroke-width="0.32" points="66.08,-82.07 58.72,-74.45 59.72,-84.99 66.08,-82.07"/>
</g>
<!-- B&#45;&gt;511 -->
<g id="edge3" class="edge">
<title>B&#45;&gt;511</title>
<path fill="none" stroke="green" stroke-width="1.09" d="M60.39,-216.44C57.7,-206.66 52.97,-189.51 48.71,-174.02"/>
<polygon fill="green" stroke="green" stroke-width="1.09" points="52.03,-172.89 46,-164.18 45.28,-174.75 52.03,-172.89"/>
</g>
<!-- 922 -->
<g id="node4" class="node">
<title>922</title>
<ellipse fill="white" stroke="black" cx="116.6" cy="-225.44" rx="25" ry="25"/>
<text text-anchor="middle" x="116.6" y="-223.24" font-family="Times,serif" font-size="9.00">922</text>
</g>
<!-- 511&#45;&gt;A XOR B -->
<g id="edge2" class="edge">
<title>511&#45;&gt;A XOR B</title>
<path fill="none" stroke="green" stroke-width="1.46" d="M39.6,-115.14C39.6,-107.37 39.6,-98.45 39.6,-89.53"/>
<polygon fill="green" stroke="green" stroke-width="1.46" points="43.1,-89.53 39.6,-79.53 36.1,-89.53 43.1,-89.53"/>
</g>
</g>
</svg>
